<svg width="88" height="87" viewBox="0 0 88 87" fill="none" xmlns="http://www.w3.org/2000/svg">
<g clip-path="url(#clip0_206_79)">
<path d="M35.0241 40.7908C35.1086 40.7417 35.2016 40.6843 35.3115 40.5941L35.5904 40.3647C35.9877 40.0451 36.3766 39.7255 36.757 39.3895C37.0529 39.1354 37.298 39.2419 37.4671 39.3403C37.9912 39.6599 38.5491 39.9221 39.031 40.1352L39.1408 40.1844C39.5212 40.3483 39.6058 40.4466 39.4367 40.8318L39.3775 40.9793C39.293 41.2006 39.1831 41.4137 39.0732 41.6267C38.9211 41.93 38.7774 42.2168 38.6844 42.5282C38.6252 42.7249 38.6759 42.8724 38.8281 43.0281C38.9633 43.151 39.1239 43.192 39.3268 43.1265C39.5043 43.0691 39.5889 42.9216 39.7072 42.6839L40.0115 42.0693C40.1975 41.7005 40.375 41.3317 40.561 40.9547C40.6794 40.7089 40.8738 40.6597 41.0428 40.6597C41.0598 40.6597 41.0851 40.6597 41.102 40.6597C41.7529 40.6925 42.5222 40.7335 43.3083 40.7417C43.6803 40.7417 43.8663 40.8974 43.9423 41.2416C44.0691 41.8234 44.2128 42.4299 44.3988 43.0855C44.4918 43.4133 44.644 43.4625 44.8891 43.4707C45.0159 43.4707 45.1934 43.4379 45.3033 43.3231C45.4048 43.2084 45.4048 43.0363 45.3879 42.9216L45.371 42.7823C45.3625 42.7003 45.354 42.6102 45.3287 42.5282C45.2864 42.3233 45.2442 42.1185 45.1934 41.9218C45.1343 41.6513 45.0751 41.3809 45.0159 41.1104C44.9821 40.9465 44.906 40.5614 45.371 40.463C45.912 40.3483 46.4276 40.1188 46.9264 39.9058L47.0954 39.832C47.4082 39.7009 47.6364 39.7337 47.8816 39.9549C48.3719 40.3893 48.8791 40.799 49.437 41.258C49.623 41.4055 49.7836 41.5202 49.9696 41.4792C50.2063 41.4301 50.3331 41.3317 50.3922 41.1514C50.4599 40.9383 50.3922 40.7581 50.1894 40.5696C49.7413 40.1762 49.2848 39.7828 48.8284 39.3977C48.7607 39.3403 48.6593 39.2419 48.6508 39.1026C48.6508 38.9961 48.6931 38.8977 48.7946 38.7912C49.0143 38.5699 49.2172 38.3405 49.4201 38.1028C49.7413 37.734 50.0457 37.3652 50.2232 36.9309C50.3246 36.6768 50.2654 36.5211 50.0203 36.3572C49.7836 36.2015 49.6399 36.2179 49.437 36.4146C49.2764 36.5703 49.1411 36.7588 49.0059 36.9391C48.0422 38.2585 46.6981 39.0944 44.9906 39.4468C43.7817 39.7009 42.4968 39.7418 41.1781 39.5697C39.5973 39.3731 38.3547 38.824 37.3656 37.8979C36.9176 37.4718 36.5288 37.021 36.1906 36.4966C36.0469 36.2835 35.7511 36.2015 35.5228 36.3163C35.2861 36.431 35.21 36.6686 35.3199 36.9473C35.4129 37.1849 35.5566 37.4062 35.7088 37.6439L35.7764 37.7586C36.1737 38.3978 36.1568 38.4962 35.5904 38.9797C35.1847 39.3239 34.7789 39.6763 34.3985 40.0533C34.2717 40.1762 34.1449 40.3729 34.3985 40.6925C34.5422 40.8728 34.7874 40.9056 35.0156 40.7908H35.0241Z" fill="#070707"/>
<path fill-rule="evenodd" clip-rule="evenodd" d="M80.8504 61.3693H61.0865H34.8219H4.05178C3.32479 61.3693 2.80914 61.2545 2.37802 61.0087C1.49887 60.5006 1.04239 59.7466 0.949402 58.6403V58.4518V33.1778C1.203 31.2028 1.65948 29.1703 3.24871 27.6133C4.52516 26.3676 6.07213 25.8595 7.85578 26.0972C9.8085 26.3758 11.3217 27.1052 12.4713 28.3508C13.156 29.0884 13.883 29.8669 14.7453 30.5308C17.0446 32.3173 19.6313 33.3909 22.4124 33.7105C25.3204 34.0465 28.0762 33.7515 30.6037 32.8336C32.4127 32.178 33.8921 31.3093 35.1263 30.162C36.4112 28.9819 37.7552 28.1869 39.243 27.7444C40.9252 27.2445 42.6075 27.2609 44.222 27.8018C44.6024 27.9247 44.9659 28.105 45.3548 28.3017L45.5172 28.3807C45.7363 28.4876 45.9598 28.5966 46.1832 28.695C48.1851 29.5531 50.1951 30.474 52.1578 31.3732L52.2865 31.4322L53.9265 32.1862L56.5893 33.3909L56.9443 33.5548C58.094 34.0711 59.2352 34.5874 60.3764 35.1119C61.3738 35.5707 62.3711 36.0223 63.3685 36.4739L63.3689 36.4741C63.8676 36.6999 64.3664 36.9257 64.8651 37.1525L67.511 38.349C68.1704 38.6522 68.8466 38.9554 69.5144 39.2504C70.8247 39.8323 72.1688 40.4305 73.4791 41.0616C74.2314 41.4304 75.0007 41.7664 75.753 42.0942L75.8291 42.127L76.9449 42.6187C79.5993 43.807 81.8479 45.069 83.8175 46.4868C84.6459 47.085 85.3137 47.6915 85.8548 48.3389C86.5564 49.183 86.9452 50.191 87.0382 51.4203C87.1397 52.7315 87.1227 54.0919 87.1058 55.4114V55.4687C87.0889 56.0998 87.0889 56.7718 87.0889 57.4438C87.0889 57.4981 87.0657 57.5974 87.0385 57.7137L87.0213 57.788C86.8269 58.6157 86.3028 59.2877 85.3222 59.9679C83.9527 60.9103 82.4903 61.3693 80.8504 61.3693ZM30.367 49.9124C31.5589 50.6909 32.7678 51.0679 34.078 51.0679H34.0949H34.1203C40.511 51.0515 47.0286 51.0515 52.7684 51.0515H84.1049H84.2402H84.3331H84.3754C84.9671 51.0515 85.2292 50.7483 85.3391 50.5598C85.449 50.3631 85.5842 49.9616 85.2292 49.4617C84.908 49.0191 84.5445 48.6094 84.1387 48.2488C82.7946 47.0359 81.1547 45.9787 78.9822 44.8969C77.1896 44.0019 75.3341 43.1612 73.5302 42.3439L72.9972 42.1024H72.9719L72.9695 42.1013C72.2771 41.7902 71.5847 41.4792 70.9008 41.1681C69.1776 40.3902 67.4628 39.6122 65.7481 38.8342L65.7468 38.8336L65.7455 38.8331L65.7443 38.8325L59.3197 35.9232C58.1785 35.4069 57.0373 34.8906 55.8961 34.3661L55.6594 34.2596C54.6619 33.8006 53.6644 33.3417 52.6585 32.891L48.3811 30.9569C47.743 30.666 47.1048 30.3772 46.4667 30.0883L46.4662 30.0881L46.466 30.088L46.4656 30.0878C45.8276 29.7991 45.1897 29.5103 44.5517 29.2195C43.4528 28.7196 42.413 28.4983 41.3479 28.5557C39.9869 28.6213 38.6936 29.0556 37.3918 29.8833C36.876 30.2087 36.4395 30.588 36.0439 30.9317L36.0438 30.9317L36.0054 30.9651L35.9631 30.9979C35.9089 31.0436 35.854 31.0906 35.7985 31.1381L35.7983 31.1383C35.6547 31.2612 35.5068 31.3878 35.3545 31.506C33.8667 32.6779 32.2268 33.5548 30.4769 34.1039C28.5411 34.7103 26.5377 35.0299 24.5342 35.0627H24.4328C23.3677 35.0627 22.3194 34.8988 21.5248 34.7595C19.048 34.3169 16.9516 33.4892 15.1087 32.2354C14.7368 31.9813 14.4071 31.9977 14.1958 32.0551C13.883 32.137 13.6548 32.3501 13.5026 32.6779L13.4096 32.8828C13.2744 33.186 13.1391 33.4892 12.9785 33.7597C11.2287 36.7755 8.63349 38.5866 5.04927 39.2914C4.51671 39.398 3.92498 39.4307 3.37551 39.4553L3.36771 39.4557C3.19277 39.4641 2.74514 39.4856 2.42874 39.8569C2.28503 40.029 2.12442 40.3322 2.19204 40.7911C2.19747 40.8649 2.19593 40.9555 2.19412 41.0609C2.19312 41.1195 2.19204 41.1827 2.19204 41.2501V41.5369V42.5695V49.8222C2.18359 49.9943 2.16668 50.3877 2.48791 50.7155C2.71615 50.9368 3.02047 51.0515 3.40087 51.0515C8.95472 51.0433 14.517 51.0433 20.0793 51.0433H26.3809L26.3784 51.0591L30.475 51.1322C30.4874 51.1325 30.4997 51.1328 30.5121 51.1328L30.475 51.1322C29.6824 51.1077 28.8542 50.4245 28.1908 49.6937C28.1315 49.5747 28.0388 49.4536 27.8987 49.3387C27.8265 49.2578 27.756 49.1767 27.6871 49.0954C27.2267 48.5087 26.9157 48.0036 26.867 47.9232L26.8687 47.9121H26.8602C26.8602 47.9121 26.8625 47.9159 26.867 47.9232L26.8572 47.9859C26.3815 47.2567 26.0225 46.5025 25.7684 45.7083C25.5571 45.0526 25.3542 44.397 25.1513 43.7414C24.9823 43.1843 24.8048 42.6271 24.6273 42.07L24.6272 42.0696L24.8365 42.0111C25.1494 41.9238 25.466 41.8355 25.7769 41.7418C25.8868 42.1024 25.9966 42.4548 26.115 42.8153V42.8563C26.3855 43.7742 26.6645 44.7166 27.011 45.6345C27.6873 47.462 28.8201 48.8962 30.367 49.9124ZM2.471 38.2752C2.60626 38.4063 2.8514 38.562 3.2318 38.562L3.24026 38.5702C3.26886 38.5702 3.29746 38.5683 3.32701 38.5663C3.3586 38.5642 3.39129 38.562 3.42623 38.562C3.60375 38.5375 3.77282 38.5211 3.95879 38.5047L4.17012 38.4801C6.19047 38.2752 7.94877 37.6196 9.39429 36.5296C11.0596 35.2758 12.1839 33.7924 12.8179 32.0141C12.9447 31.6781 13.3166 30.6291 12.2938 29.9243L12.2262 29.8506C12.1268 29.7542 12.0378 29.6479 11.947 29.5393L11.947 29.5393L11.947 29.5392C11.9219 29.5093 11.8967 29.4791 11.8711 29.449L11.8542 29.4244L11.8436 29.4116C11.6349 29.1607 11.4008 28.8793 11.085 28.6295C10.1128 27.8591 8.93781 27.4084 7.59373 27.2855C5.95378 27.1297 4.66887 27.6624 3.739 28.8425C2.91903 29.8833 2.43719 31.129 2.2174 32.7762C2.14132 33.3909 2.15823 33.9809 2.18359 34.571L2.18764 34.738C2.19605 35.073 2.20528 35.4404 2.18359 35.7839V35.8167V36.4395V36.4805C2.19204 36.7837 2.2005 37.0951 2.16668 37.3901C2.11596 37.8573 2.33575 38.1441 2.471 38.2752ZM3.3927 52.3708H84.2489C84.942 52.3708 85.5 52.9117 85.5 53.5837V56.2307C85.5 58.255 83.8093 59.894 81.7213 59.894H3.3927C2.69952 59.894 2.1416 59.3531 2.1416 58.6811V53.5837C2.1416 52.9117 2.69952 52.3708 3.3927 52.3708Z" fill="#070707"/>
</g>
<defs>
<clipPath id="clip0_206_79">
<rect width="86.5791" height="35.7311" fill="white" transform="translate(0.737274 25.8428)"/>
</clipPath>
</defs>
</svg>
