<svg width="88" height="87" viewBox="0 0 88 87" fill="none" xmlns="http://www.w3.org/2000/svg">
<g clip-path="url(#clip0_206_92)">
<path fill-rule="evenodd" clip-rule="evenodd" d="M53.7456 26.4873C77.038 39.1854 91.5689 57.5193 86.2012 67.4373C80.8335 77.3552 57.6 75.1014 34.3076 62.4033C11.0152 49.7052 -3.51565 31.3712 1.85202 21.4533C7.21969 11.5354 30.4533 13.7891 53.7456 26.4873ZM46.4603 30.9649C63.9491 34.1453 77.0364 42.7621 75.6916 50.2111C74.3469 57.6601 59.0792 61.1205 41.5904 57.9402C24.1016 54.7598 11.0143 46.143 12.3591 38.694C13.7039 31.245 28.9715 27.7846 46.4603 30.9649Z" fill="#070707"/>
<path d="M24.2109 43.2943L35.5978 42.3666C37.2973 42.2338 38.8944 41.4883 40.0946 40.2837L40.2734 40.1042C41.4736 38.8996 42.2162 37.2969 42.3485 35.5917L42.3486 35.5917L42.3488 35.5861L43.2725 14.6605L44.1961 35.5861L44.196 35.5861L44.1965 35.5917C44.3287 37.2969 45.0713 38.8996 46.2715 40.1042L46.4503 40.2837C47.6506 41.4883 49.2477 42.2338 50.9472 42.3666L62.3341 43.2943L50.7883 44.2325C50.7882 44.2325 50.7881 44.2325 50.7881 44.2325C49.0886 44.3654 47.4916 45.1108 46.2914 46.3154C45.0912 47.52 44.3486 49.1227 44.2163 50.8279L44.2162 50.8279L44.216 50.8335L43.2725 72.1531L42.329 50.8335L42.3286 50.8279C42.1964 49.1227 41.4538 47.52 40.2535 46.3154C39.0533 45.1108 37.4563 44.3654 35.7569 44.2325C35.7568 44.2325 35.7567 44.2325 35.7567 44.2325L24.2109 43.2943Z" fill="#070707" stroke="#070707" stroke-width="0.3382"/>
</g>
<defs>
<clipPath id="clip0_206_92">
<rect width="86.5791" height="86.5791" fill="white" transform="translate(0.737335)"/>
</clipPath>
</defs>
</svg>
