<svg width="87" height="87" viewBox="0 0 87 87" fill="none" xmlns="http://www.w3.org/2000/svg">
<g clip-path="url(#clip0_206_104)">
<g clip-path="url(#clip1_206_104)">
<path d="M68.5573 28.551C70.0292 26.5751 69.7772 23.7523 67.9827 21.9779C66.9544 20.9597 65.6035 20.4254 64.2727 20.4758C62.8412 20.5262 61.4701 21.2117 60.4216 22.4114C59.2522 23.7422 58.113 25.1334 57.004 26.4843C56.4999 27.0993 55.9959 27.7243 55.4817 28.3292L50.0378 34.9023C50.0378 34.9023 55.2902 21.3428 56.3689 18.3285L57.3266 15.667C57.7904 14.3866 57.8811 13.3785 57.6391 12.4006C57.0645 10.1222 55.3507 8.64024 53.0622 8.43861C50.8644 8.25714 48.8482 9.48707 48.0417 11.5235C47.1242 13.8624 46.2572 16.2618 45.4205 18.5906C45.0172 19.7096 44.614 20.8186 44.2107 21.9275C44.1301 22.2501 41.6803 30.2346 41.6803 30.2346L41.892 21.9275C41.892 21.736 41.892 21.5444 41.892 21.363C41.7912 17.0481 41.8113 12.6728 41.8315 8.42853V5.90818C41.8416 5.04118 41.7307 4.31531 41.4887 3.68019C40.773 1.82521 39.3616 0.575114 37.5872 0.242427C35.9137 -0.0700963 34.2705 0.514625 33.0808 1.83529C32.0727 2.96441 31.5989 4.29515 31.5989 6.01907C31.5989 12.9954 31.5989 19.9617 31.5989 26.938L31.74 38.461L29.754 35.3862C29.6532 35.3056 29.5624 35.2249 29.4818 35.1342C26.8606 32.3719 23.8261 31.031 20.2472 31.031C19.5818 31.031 18.9064 31.0814 18.2007 31.1722C12.9483 31.8577 8.71409 35.8096 7.65554 41.0015C7.22204 43.1388 7.27245 45.2861 7.33294 47.5645C7.34302 48.0989 7.36318 48.6433 7.36318 49.1776C7.36318 49.5203 7.464 49.9034 7.63538 50.2865C7.90758 50.8914 7.88742 51.4963 7.54465 52.0911C7.20188 52.696 7.04058 53.2101 7.04058 53.6537C7.04058 54.7123 7.0305 55.7708 7.01033 56.8193C6.97001 59.1481 6.92968 61.5474 7.14139 63.8863C7.66562 69.5017 11.2848 73.9274 16.6078 75.4295C21.8098 76.9014 27.1429 78.2927 32.2945 79.6436L36.9622 80.8735C42.0029 82.2042 46.1463 84.15 49.6446 86.8114C50.189 87.2349 50.4007 87.255 50.9249 86.63C53.2336 83.8979 55.5321 81.1558 57.8206 78.4136C60.593 75.0969 63.3654 71.7801 66.1176 68.4431C66.6923 67.7475 66.6822 67.6971 66.0168 67.1023L65.7244 66.8402C65.3212 66.4773 64.9179 66.1244 64.5046 65.7716C61.6515 63.3621 58.7884 60.9627 55.9152 58.5734C55.512 58.2407 54.9777 57.6762 54.9777 56.6479C54.9877 53.9864 54.9777 51.3249 54.9777 48.6634V45.7096C54.9777 45.2458 55.0281 44.7014 55.4716 44.1772C58.4356 40.6689 61.3995 37.1504 64.3534 33.632C64.7163 33.1985 65.0893 32.755 65.4623 32.3215C66.5007 31.1016 67.5794 29.8313 68.5472 28.5409L68.5573 28.551ZM58.0525 39.197C56.7117 40.7999 55.3809 42.4129 54.03 44.0058C53.8082 44.2679 53.7074 44.5603 53.7074 44.9837V47.6654C53.7074 50.9418 53.7074 54.2183 53.6973 57.4947C53.6973 58.1198 53.8889 58.523 54.3829 58.9263C56.1471 60.378 57.8912 61.8499 59.6353 63.3218C61.0265 64.4912 62.4177 65.6607 63.819 66.82C64.0005 66.9712 64.4239 67.3241 64.4743 67.9088C64.5247 68.4935 64.1719 68.917 64.0308 69.0783C59.7159 74.2097 55.4212 79.3512 51.1266 84.5028C50.6931 85.027 50.2596 85.1883 49.8765 85.1883C49.453 85.1883 49.1103 84.9867 48.9288 84.8557C44.7249 81.8312 39.916 80.3694 35.3391 79.2504C29.1289 77.7281 22.9692 76.0042 17.2329 74.3811C12.6761 73.0806 9.65166 69.9049 8.50238 65.1768C8.35116 64.5719 8.28059 63.9771 8.27051 63.4024C8.25035 60.3881 8.25035 57.3637 8.27051 54.3493C8.27051 52.5246 9.51052 51.0225 11.3353 50.6091C13.0995 50.2159 14.8133 51.0729 15.6098 52.7464C15.9223 53.4118 15.9525 54.0771 15.9525 54.7022C15.9525 55.6095 15.9525 56.5067 15.9525 57.4141C15.9525 59.3699 15.9425 61.3962 15.9929 63.3823C16.0433 65.449 17.7269 67.0922 19.8339 67.1225H19.8843C21.9107 67.1225 23.6245 65.5498 23.7959 63.5234C23.8261 63.1201 23.8463 62.7169 23.8463 62.3237C23.8463 56.658 23.8463 50.9922 23.8463 45.3365C23.8463 44.4998 23.8463 43.7538 23.685 43.0682C23.2313 41.1628 21.3864 39.8321 19.5314 40.0438C17.7067 40.2454 16.2751 41.9391 16.2651 43.905C16.2651 45.0341 16.2651 46.1733 16.2651 47.3427V50.841L14.7831 50.0546C13.1802 49.2078 11.7486 49.0868 10.2666 49.6615C9.66174 49.8933 9.25849 49.7421 9.01653 49.5707C8.81491 49.4296 8.4923 49.0969 8.52254 48.4416C8.55279 47.7057 8.52254 46.9697 8.51246 46.1935C8.47214 44.5905 8.42173 42.9372 8.83507 41.2637C9.89362 36.9387 12.6257 34.0051 16.749 32.7751C20.8219 31.5654 24.6629 32.4324 27.8788 35.2955C30.3589 37.5033 31.619 40.3563 31.619 43.7538V44.3183C31.619 44.8022 31.619 45.2761 31.619 45.76C31.619 45.9717 31.6997 46.3245 32.1231 46.3447C32.6373 46.3447 32.7482 46.1027 32.7784 45.8406C32.8187 45.4878 32.8086 45.1148 32.7986 44.7216C32.7986 44.5401 32.7986 44.3587 32.7986 44.1772V38.7937C32.7986 28.0369 32.7986 17.28 32.7986 6.52314C32.7986 6.03924 32.849 5.56541 32.8994 5.17223C33.1917 2.95433 34.7947 1.42195 36.821 1.42195C36.8513 1.42195 36.8715 1.42195 36.9017 1.42195C38.8373 1.46228 40.41 3.08538 40.6217 5.28313C40.7326 6.382 40.7226 7.48088 40.7125 8.53942C40.7125 8.87211 40.7125 9.19471 40.7125 9.51732C40.7125 14.427 40.7125 19.3366 40.7125 24.2462V37.9973C40.7125 38.3602 40.7024 38.7332 40.6822 39.0962C40.652 39.8019 40.6217 40.4672 40.7226 41.1024C40.773 41.4653 40.9141 41.5359 41.1863 41.556C41.3274 41.556 41.5795 41.556 41.7206 41.435C41.8214 41.3342 41.8819 41.1427 41.8819 40.8906C41.8819 40.5076 41.8819 40.1245 41.892 39.7414C41.9122 38.5518 41.9323 37.4226 41.8315 36.2935C41.5593 33.0776 42.4364 30.2346 43.3236 27.8655C44.5938 24.5084 45.8237 21.0706 47.0133 17.7538C47.6283 16.0299 48.2534 14.306 48.8784 12.5821C49.3321 11.3219 50.1688 10.3843 51.2173 9.92058C52.1649 9.50724 53.2537 9.51732 54.272 9.95082C55.9959 10.6767 56.9839 12.6426 56.51 14.427C56.0866 16.0299 55.4716 17.5623 54.8869 19.0442C54.5643 19.8407 54.2518 20.6371 53.9594 21.4537C52.4472 25.6677 50.9149 29.8818 49.3825 34.0958L47.2755 39.8825C47.1746 40.1749 47.0638 40.4874 46.9932 40.7898C46.9125 41.1628 47.0638 41.4552 47.3763 41.5459C47.6485 41.6367 47.9509 41.4653 48.082 41.1528C48.3542 40.4874 48.6062 39.7716 48.8683 38.9349C49.201 37.8561 49.7656 36.8783 50.5922 35.9407C53.4554 32.7247 56.4294 29.1962 60.22 24.4882C60.6736 23.9236 61.1777 23.3288 61.7423 22.7744C63.1335 21.4235 65.2808 21.3529 66.8535 22.603C68.3658 23.8027 68.769 25.9399 67.7911 27.5731C67.4181 28.1982 66.9443 28.7627 66.5814 29.1761C63.688 32.4626 60.835 35.8903 58.0827 39.197H58.0525ZM22.5962 56.2345C22.5962 58.4222 22.5962 60.62 22.5962 62.8076C22.5962 64.6223 21.5578 65.822 19.9549 65.8724C19.9246 65.8724 19.8944 65.8724 19.8641 65.8724C19.1282 65.8724 18.4729 65.6203 17.989 65.1667C17.4849 64.6828 17.2026 64.0073 17.1926 63.2109C17.1724 62.364 17.1825 61.5172 17.1926 60.6704C17.1926 59.9042 17.1926 59.1481 17.1926 58.3819C17.1926 57.8778 17.1926 57.3737 17.2127 56.8697C17.243 55.6297 17.2732 54.4501 16.9909 53.3412C16.749 52.3835 16.5776 51.2342 17.2329 49.9841C17.495 49.48 17.5252 48.8046 17.5252 48.1997C17.5252 46.7681 17.5252 45.3365 17.5252 43.905C17.5252 42.3323 18.5435 41.2233 19.9851 41.2133H20.0053C21.3965 41.2133 22.5458 42.3827 22.576 43.8243C22.6063 45.0845 22.6063 46.3548 22.6063 47.6149V49.0062L22.6163 56.2345H22.5962Z" fill="#070707"/>
<path d="M8.58384 17.4211C9.1484 18.9635 9.87426 20.4858 10.5699 21.9678C10.8522 22.5727 11.1445 23.1877 11.4167 23.7925C11.5881 24.1656 11.7393 24.1555 11.8099 24.1555H11.8502H11.8905C12.2434 24.1756 12.3946 24.095 12.5962 23.6212C12.8079 23.1473 13.0297 22.6735 13.2515 22.1997C13.7455 21.1512 14.2193 20.1632 14.4915 19.145C15.2174 16.4634 17.1833 15.4855 18.8064 14.931C19.996 14.5177 21.1453 13.9733 22.345 13.3986L23.2321 12.9752C23.6354 12.7836 23.6858 12.6425 23.6253 12.2695C23.6051 12.1485 23.585 11.9973 23.1212 11.7957L21.4376 11.0597C20.0565 10.4548 18.635 9.83988 17.2236 9.27532C16.1449 8.8519 15.4594 8.15628 15.0561 7.09774C14.3202 5.17219 13.4431 3.17607 12.4551 1.15979C12.2736 0.786778 12.1325 0.696045 11.951 0.696045C11.8905 0.696045 11.82 0.706126 11.7494 0.726289C11.6385 0.746452 11.5074 0.776696 11.2655 1.31101C10.3178 3.45835 9.36011 5.60569 8.42254 7.75303C8.30156 8.04539 8.03945 8.64019 7.31358 8.92247C6.73894 9.14426 6.17439 9.3963 5.60983 9.64833L4.17827 10.2734C3.01891 10.7774 1.86963 11.2815 0.720346 11.8058C0.145706 12.088 0.165868 12.2796 0.196113 12.5115C0.216275 12.6425 0.236438 12.8341 0.730427 13.0458L2.33337 13.7515C3.90607 14.4471 5.48885 15.1326 7.07163 15.8081C7.81765 16.1307 8.30156 16.6448 8.59392 17.4211H8.58384Z" fill="#070707"/>
<path d="M71.6829 54.6416C72.2475 56.1841 72.9734 57.7064 73.669 59.1883C73.9513 59.7932 74.2436 60.4082 74.5158 61.0131C74.6872 61.3861 74.8384 61.376 74.909 61.376H74.9493H74.9896C75.3425 61.3962 75.4937 61.3155 75.6953 60.8417C75.9071 60.3679 76.1289 59.894 76.3506 59.4202C76.8446 58.3717 77.3185 57.3838 77.5907 56.3655C78.3165 53.6839 80.2824 52.706 81.9055 52.1515C83.0951 51.7382 84.2444 51.1938 85.4441 50.6191L86.3312 50.1957C86.7345 50.0042 86.7849 49.863 86.7244 49.49C86.7042 49.369 86.6841 49.2178 86.2203 49.0162L84.5367 48.2803C83.1556 47.6754 81.7341 47.0604 80.3227 46.4958C79.244 46.0724 78.5585 45.3768 78.1552 44.3183C77.4193 42.3927 76.5422 40.3966 75.5542 38.3803C75.3727 38.0073 75.2316 37.9166 75.0501 37.9166C74.9897 37.9166 74.9191 37.9266 74.8485 37.9468C74.7376 37.967 74.6066 37.9972 74.3646 38.5315C73.417 40.6789 72.4592 42.8262 71.5216 44.9735C71.4007 45.2659 71.1386 45.8607 70.4127 46.143C69.8381 46.3648 69.2735 46.6168 68.7089 46.8689L67.2774 47.4939C66.118 47.998 64.9687 48.502 63.8195 49.0263C63.2347 49.2884 63.2549 49.4799 63.2952 49.7219C63.3154 49.853 63.3355 50.0445 63.8295 50.2562L65.4325 50.9619C67.0052 51.6575 68.588 52.3431 70.1707 53.0185C70.9168 53.3411 71.4007 53.8553 71.693 54.6315L71.6829 54.6416Z" fill="#070707"/>
</g>
</g>
<defs>
<clipPath id="clip0_206_104">
<rect width="86.5791" height="86.5801" fill="white" transform="translate(0 0.171814)"/>
</clipPath>
<clipPath id="clip1_206_104">
<rect width="86.5791" height="86.9521" fill="white" transform="translate(0.18631 0.171814)"/>
</clipPath>
</defs>
</svg>
