<svg width="87" height="87" viewBox="0 0 87 87" fill="none" xmlns="http://www.w3.org/2000/svg">
<g clip-path="url(#clip0_206_73)">
<path d="M43.2895 0C19.4194 0 0 19.4194 0 43.2895C0 67.1597 19.4194 86.5791 43.2895 86.5791C67.1597 86.5791 86.5791 67.1597 86.5791 43.2895C86.5791 19.4194 67.1597 0 43.2895 0ZM2.80269 55.1931C2.87617 55.4555 2.93915 55.7285 3.00214 56.0014C2.72921 55.1406 2.48778 54.2589 2.26735 53.3771C2.4458 53.986 2.62424 54.5948 2.7922 55.1931H2.80269ZM82.1703 59.7803C82.1703 59.7803 82.1494 59.7488 82.1389 59.7383C82.1179 59.6963 82.0864 59.6648 82.0549 59.6333C82.0129 59.5809 81.9709 59.5389 81.9289 59.4969C81.9079 59.4759 81.8869 59.4654 81.8764 59.4444C81.6035 59.203 81.2571 59.0455 80.8792 59.077C80.8582 59.077 80.8267 59.077 80.7952 59.077C80.7743 59.077 80.7638 59.077 80.7428 59.077C78.8533 59.245 76.8484 59.4759 75.2109 60.5151C74.2976 61.0924 73.5733 61.8797 73.0275 62.8139C72.4921 63.7272 72.1247 64.7034 71.4214 65.5012C70.0148 67.0862 68.4928 68.3983 67.6215 70.3927C66.7188 72.4711 66.4669 74.623 66.7818 76.8484C66.8553 77.3522 67.1597 77.6672 67.5481 77.8246C60.6725 82.6637 52.3064 85.5189 43.2895 85.5189C34.892 85.5189 27.0612 83.0416 20.4796 78.8008C20.6686 78.6749 20.8365 78.5069 20.973 78.2655C22.9569 74.77 23.9751 70.7391 23.7337 66.7083C23.4712 62.4255 21.3194 58.5417 21.4243 54.2274C21.5293 50.249 22.747 46.3547 22.6315 42.3553C22.5055 38.4819 20.931 34.9549 17.9183 32.4672C14.2129 29.423 9.57324 28.3104 4.94408 27.5021C4.65016 27.4496 4.36674 27.4811 4.10432 27.5546C7.14844 19.9862 12.313 13.5096 18.8631 8.83846C18.6321 9.11138 18.4117 9.40529 18.2228 9.70971C17.4355 10.9693 17.2675 12.6279 18.3172 13.793C19.4614 15.0527 21.1199 14.8742 22.6 14.4753C25.2452 13.7825 27.922 12.9953 30.3783 11.7566C32.4777 10.7069 35.5113 8.52355 34.5456 5.76284C33.7793 3.58997 31.3335 3.20158 29.0766 3.485C33.5274 1.88946 38.3035 1.01821 43.2895 1.01821C49.1993 1.01821 54.8362 2.24635 59.9482 4.45072C59.8328 4.5137 59.7173 4.58718 59.6228 4.68165C57.7544 6.69707 55.8964 8.702 54.028 10.7069C52.5689 12.2815 50.6584 13.919 50.1651 16.0919C49.6927 18.1388 50.5115 20.1962 52.4744 21.0674C53.2512 21.4138 54.1434 21.4873 54.9097 21.8547C55.718 22.2431 55.8649 23.0619 56.0539 23.8596C56.4947 25.7596 56.9251 27.5336 58.6781 28.6463C59.4864 29.1606 60.3996 29.4335 61.1659 30.0214C61.9847 30.6617 62.6565 31.5014 63.2653 32.3307C64.4934 33.9997 65.6481 35.7212 67.2646 37.0543C68.7657 38.293 70.4452 39.2482 72.2717 39.92C76.523 41.4841 81.2781 41.2216 85.3404 39.2377C85.4664 40.5498 85.5399 41.8829 85.5399 43.2371C85.5399 49.0839 84.3432 54.6578 82.1913 59.7278L82.1703 59.7803Z" fill="#070707"/>
<path d="M57.712 49.4303C55.98 47.3204 53.7442 45.7668 50.9415 46.8585C48.3172 47.8872 46.2493 50.5114 44.5488 52.6528C42.7013 54.9832 41.1478 57.4814 40.1086 60.2736C38.9329 63.4542 38.513 67.0337 39.2688 70.3507C40.0141 73.6258 42.7328 74.4656 45.777 74.2661C46.2808 74.2346 46.6587 74.0037 46.9106 73.6888C49.1885 73.4368 51.2984 71.8518 53.5867 72.5026C56.064 73.2059 58.4888 74.581 60.8926 72.828C63.013 71.285 63.7688 68.1464 64.3776 65.7426C65.1544 62.7089 65.1649 59.6438 63.5274 56.8831C61.9423 54.2064 59.6645 51.8131 57.691 49.4198L57.712 49.4303Z" fill="#070707"/>
<path d="M37.6944 32.2467C31.8476 28.4363 28.0372 32.7821 28.0057 32.8241C27.8168 33.0445 27.8483 33.3699 28.0687 33.5589C28.1632 33.6428 28.2892 33.6848 28.4151 33.6848C28.5621 33.6848 28.709 33.6218 28.814 33.5064C28.94 33.3594 32.0786 29.8324 37.1381 33.1285C37.3795 33.2859 37.7049 33.2229 37.8624 32.971C38.0199 32.7296 37.9569 32.4042 37.7049 32.2467H37.6944Z" fill="#070707"/>
<path d="M49.1669 33.6848C49.3139 33.6848 49.4608 33.6218 49.5658 33.5064C49.6918 33.3594 52.8408 29.8324 57.8899 33.1285C58.1313 33.2859 58.4567 33.2229 58.6142 32.971C58.7716 32.7191 58.7087 32.4042 58.4567 32.2467C52.6099 28.4363 48.7995 32.7821 48.768 32.8241C48.5791 33.0445 48.6106 33.3699 48.831 33.5589C48.9255 33.6428 49.0514 33.6848 49.1774 33.6848H49.1669Z" fill="#070707"/>
<path d="M43.2053 42.3763C43.2578 42.3763 43.3207 42.3763 43.3732 42.3763C45.1472 42.3763 46.8267 41.3266 48.3908 39.2377C48.5692 39.0068 48.5167 38.6814 48.2858 38.5029C48.0549 38.335 47.7295 38.377 47.551 38.6079C46.1549 40.4658 44.6643 41.3686 43.2473 41.3266C40.77 41.2321 38.9435 38.4294 38.933 38.3979C38.7755 38.1565 38.4501 38.083 38.2087 38.2405C37.9673 38.3979 37.8938 38.7234 38.0513 38.9648C38.1352 39.1012 40.1821 42.2608 43.2158 42.3763H43.2053Z" fill="#070707"/>
</g>
<defs>
<clipPath id="clip0_206_73">
<rect width="86.5791" height="86.5791" fill="white"/>
</clipPath>
</defs>
</svg>
